<svg xmlns="http://www.w3.org/2000/svg" xmlns:xlink="http://www.w3.org/1999/xlink" version="1.1" id="Layer_1" x="0px" y="0px" width="75px" height="75px" viewBox="3.75 -7.5 75.0 101.25" enable-background="new 0 0 75 75" xml:space="preserve">
<path fill="#000000" d="M67.104,33.365C67.104,40.344,61.498,46,54.582,46c-0.542,0-1.075-0.039-1.601-0.106  c-1.576,2.224-4.169,3.677-7.103,3.677c-1.414,0-2.749-0.34-3.93-0.938c-1.736,3.007-4.797,5.005-8.284,5.005  c-4.076,0-7.57-2.728-9.047-6.605c-1.007,0.26-2.078,0.4-3.188,0.4c-5.924,0-10.726-3.997-10.726-8.928  c0-3.686,2.683-6.849,6.51-8.212c-1.938-1.623-3.118-3.762-3.118-6.107c0-4.694,4.719-8.562,10.808-9.111  c0.195-2.438,1.419-4.654,3.528-5.902c3.656-2.163,8.584-0.597,11.006,3.497c0.139,0.234,0.265,0.472,0.381,0.712  c1.767-1.646,4.245-2.672,6.99-2.672c5.365,0,9.715,3.91,9.715,8.731c0,0.486-0.046,0.962-0.131,1.426  C62.451,21.751,67.104,27.009,67.104,33.365z M24.831,55.352c-1.558,0-2.82,1.263-2.82,2.82s1.263,2.82,2.82,2.82  s2.82-1.263,2.82-2.82S26.389,55.352,24.831,55.352z M20.038,62.856c-1.089,0-1.973,0.883-1.973,1.973s0.884,1.973,1.973,1.973  c1.09,0,1.973-0.883,1.973-1.973S21.128,62.856,20.038,62.856z"/>
<text x="0.0" y="88.125" font-size="3.75" font-weight="bold" font-family="Helvetica Neue, Helvetica, Arial-Unicode, Arial, Sans-serif" fill="#000000">Created by Stephen Borengasser</text><text x="0.0" y="91.875" font-size="3.75" font-weight="bold" font-family="Helvetica Neue, Helvetica, Arial-Unicode, Arial, Sans-serif" fill="#000000">from the Noun Project</text></svg>